<svg width="24" height="24" viewBox="0 0 24 24" fill="none" xmlns="http://www.w3.org/2000/svg">
<path d="M22.7696 8.62509C22.552 7.79068 22.2383 6.98348 21.8345 6.21924L19.9 7.81444L15.4883 11.4473L17.4101 13.037L20.6202 10.3893C20.6665 10.7581 20.6903 11.1292 20.6915 11.5009C20.6928 12.7462 20.4324 13.9784 19.9265 15.1199L21.8582 16.7165C23.1534 14.2187 23.4756 11.3407 22.7641 8.62509H22.7696Z" fill="white"/>
<path d="M11.6526 14.8583L10.9758 14.2924L8.33825 12.0885L7.64887 11.5114L3.24881 7.8308L1.32579 6.21924C0.917674 6.99162 0.599747 7.80807 0.378231 8.65258C-0.340875 11.3973 -0.0276785 14.3092 1.2588 16.8398L3.19438 15.2268C2.69697 14.0796 2.44097 12.8431 2.4422 11.5934C2.44326 11.2085 2.46843 10.824 2.51756 10.4422L5.72724 13.1216L6.41802 13.6986L9.05275 15.9026L9.72962 16.4685L11.6526 18.0773L13.5854 16.4671L14.3111 15.8609L12.3881 14.2534L11.6526 14.8583Z" fill="white"/>
<path d="M5.90676 4.46169C6.13173 4.2769 6.36596 4.10505 6.60945 3.94613C8.72507 2.54712 11.3277 2.08742 13.796 2.67678C16.2641 3.26613 18.3765 4.85165 19.6286 7.05478L21.5172 5.47759C19.8022 2.71251 16.9998 0.795991 13.7969 0.19784C10.5941 -0.40031 7.28689 0.375208 4.68608 2.33428C4.45555 2.50753 4.23475 2.69047 4.01811 2.88035C3.3996 3.42424 2.84096 4.03241 2.35166 4.69454L18.201 17.9704C15.1017 21.129 10.1796 21.6159 6.51918 19.1262C6.27338 18.96 6.03591 18.7812 5.80816 18.5926C4.9384 17.8682 4.20969 16.9901 3.65844 16.0023L1.76562 17.581C3.86879 21.029 7.62098 23.1335 11.6657 23.1335C15.7105 23.1335 19.4627 21.029 21.5658 17.581L19.6744 15.9982L5.90676 4.46169Z" fill="white"/>
</svg>
